<svg xmlns="http://www.w3.org/2000/svg" width="314.069" height="314.069"><path d="M168.133 97.482c-6.126-6.127-16.072-6.127-22.197 0h-.008c-.016.016-.024.032-.032.04l-44.369 44.364c-6.133 6.129-6.133 16.08 0 22.208v-.009c6.129 6.132 16.068 6.132 22.201 0l17.607-17.598v65.503c0 8.664 7.033 15.701 15.701 15.701s15.696-7.037 15.696-15.701v-65.503l17.602 17.598c6.135 6.132 16.077 6.132 22.201 0v.009c6.135-6.128 6.135-16.078 0-22.208l-44.402-44.404zm124.871-18.957C249.648 3.436 153.62-22.295 78.531 21.061 3.436 64.411-22.296 160.443 21.068 235.542c43.35 75.087 139.375 100.822 214.465 57.467 75.096-43.361 100.832-139.388 57.471-214.484zm-73.168 187.277c-60.075 34.685-136.894 14.114-171.576-45.969-34.69-60.071-14.097-136.897 45.972-171.58C154.303 13.57 231.126 34.154 265.81 94.232c34.685 60.076 14.098 136.886-45.974 171.57z"/></svg>